G04 MADE WITH FRITZING*
G04 WWW.FRITZING.ORG*
G04 DOUBLE SIDED*
G04 HOLES PLATED*
G04 CONTOUR ON CENTER OF CONTOUR VECTOR*
%ASAXBY*%
%FSLAX23Y23*%
%MOIN*%
%OFA0B0*%
%SFA1.0B1.0*%
%ADD10C,0.078000*%
%ADD11C,0.039370*%
%ADD12R,0.043307X0.047244*%
%ADD13R,0.047244X0.043307*%
%ADD14C,0.016000*%
%LNCOPPER1*%
G90*
G70*
G54D10*
X100Y1200D03*
X100Y1100D03*
X100Y1000D03*
X100Y900D03*
X100Y800D03*
X100Y700D03*
X100Y600D03*
X100Y500D03*
X100Y400D03*
X100Y300D03*
X100Y200D03*
X100Y100D03*
X1200Y1200D03*
X1200Y1100D03*
X1200Y1000D03*
X1200Y900D03*
X1200Y800D03*
X1200Y700D03*
X1200Y600D03*
X1200Y500D03*
X1200Y400D03*
X1200Y300D03*
X1200Y200D03*
X1200Y100D03*
G54D11*
X931Y953D03*
X769Y953D03*
X369Y951D03*
X531Y951D03*
X369Y351D03*
X531Y351D03*
X769Y351D03*
X931Y351D03*
X249Y750D03*
X650Y752D03*
X249Y151D03*
X650Y150D03*
X724Y684D03*
X1106Y837D03*
X1104Y237D03*
X787Y642D03*
G54D12*
X650Y394D03*
X650Y461D03*
X1050Y393D03*
X1050Y460D03*
G54D13*
X897Y550D03*
X964Y550D03*
X337Y150D03*
X404Y150D03*
G54D12*
X250Y238D03*
X250Y305D03*
X650Y237D03*
X650Y304D03*
G54D13*
X739Y550D03*
X806Y550D03*
G54D12*
X650Y617D03*
X650Y684D03*
G54D13*
X896Y151D03*
X963Y151D03*
X496Y551D03*
X563Y551D03*
X338Y551D03*
X405Y551D03*
X738Y151D03*
X805Y151D03*
G54D12*
X1050Y236D03*
X1050Y303D03*
G54D13*
X495Y150D03*
X562Y150D03*
G54D12*
X650Y837D03*
X650Y904D03*
X250Y838D03*
X250Y905D03*
X650Y995D03*
X650Y1062D03*
G54D13*
X338Y1150D03*
X405Y1150D03*
X494Y1150D03*
X561Y1150D03*
X493Y750D03*
X560Y750D03*
X336Y750D03*
X403Y750D03*
X738Y750D03*
X805Y750D03*
X895Y1151D03*
X962Y1151D03*
X738Y1151D03*
X805Y1151D03*
G54D12*
X1050Y836D03*
X1050Y903D03*
X1050Y994D03*
X1050Y1061D03*
G54D13*
X894Y750D03*
X961Y750D03*
G54D14*
X476Y1150D02*
X423Y1150D01*
D02*
X475Y750D02*
X421Y750D01*
D02*
X650Y922D02*
X650Y977D01*
D02*
X250Y923D02*
X250Y978D01*
D02*
X877Y1151D02*
X823Y1151D01*
D02*
X1050Y921D02*
X1050Y976D01*
D02*
X823Y750D02*
X876Y750D01*
D02*
X879Y550D02*
X824Y550D01*
D02*
X1050Y321D02*
X1050Y375D01*
D02*
X823Y151D02*
X878Y151D01*
D02*
X650Y322D02*
X650Y376D01*
D02*
X422Y150D02*
X477Y150D01*
D02*
X250Y377D02*
X250Y323D01*
D02*
X478Y551D02*
X423Y551D01*
D02*
X493Y907D02*
X406Y993D01*
D02*
X492Y308D02*
X407Y393D01*
D02*
X893Y308D02*
X807Y393D01*
D02*
X807Y993D02*
X893Y907D01*
D02*
X377Y934D02*
X387Y910D01*
D02*
X522Y969D02*
X512Y990D01*
D02*
X777Y935D02*
X787Y911D01*
D02*
X922Y970D02*
X913Y990D01*
D02*
X377Y334D02*
X387Y312D01*
D02*
X523Y369D02*
X513Y391D01*
D02*
X777Y334D02*
X787Y311D01*
D02*
X923Y369D02*
X912Y390D01*
D02*
X250Y769D02*
X250Y820D01*
D02*
X263Y764D02*
X334Y834D01*
D02*
X268Y750D02*
X318Y750D01*
D02*
X340Y864D02*
X306Y951D01*
D02*
X306Y951D02*
X340Y1037D01*
D02*
X344Y1077D02*
X339Y1134D01*
D02*
X650Y771D02*
X650Y819D01*
D02*
X663Y765D02*
X734Y835D01*
D02*
X669Y751D02*
X720Y751D01*
D02*
X707Y950D02*
X740Y1037D01*
D02*
X740Y864D02*
X707Y950D01*
D02*
X745Y1077D02*
X739Y1135D01*
D02*
X250Y170D02*
X250Y220D01*
D02*
X268Y151D02*
X319Y150D01*
D02*
X263Y165D02*
X334Y236D01*
D02*
X307Y350D02*
X341Y437D01*
D02*
X341Y265D02*
X307Y350D01*
D02*
X345Y477D02*
X340Y535D01*
D02*
X650Y169D02*
X650Y219D01*
D02*
X663Y163D02*
X734Y235D01*
D02*
X669Y150D02*
X720Y150D01*
D02*
X706Y350D02*
X740Y437D01*
D02*
X740Y264D02*
X706Y350D01*
D02*
X745Y477D02*
X741Y534D01*
D02*
X650Y1200D02*
X650Y1080D01*
D02*
X1170Y1200D02*
X650Y1200D01*
D02*
X1140Y1151D02*
X980Y1151D01*
D02*
X1177Y1120D02*
X1140Y1151D01*
D02*
X1016Y1117D02*
X965Y1066D01*
D02*
X1085Y1117D02*
X1016Y1117D01*
D02*
X1179Y1021D02*
X1085Y1117D01*
D02*
X1115Y980D02*
X1178Y921D01*
D02*
X1066Y1052D02*
X1115Y1024D01*
D02*
X1115Y1024D02*
X1115Y980D01*
D02*
X1118Y756D02*
X1044Y756D01*
D02*
X1174Y786D02*
X1118Y756D01*
D02*
X1044Y756D02*
X966Y834D01*
D02*
X961Y700D02*
X961Y734D01*
D02*
X1170Y700D02*
X961Y700D01*
D02*
X701Y602D02*
X656Y479D01*
D02*
X1170Y600D02*
X701Y602D01*
D02*
X1177Y519D02*
X1138Y550D01*
D02*
X1138Y550D02*
X982Y550D01*
D02*
X1017Y516D02*
X965Y466D01*
D02*
X1085Y516D02*
X1017Y516D01*
D02*
X1179Y421D02*
X1085Y516D01*
D02*
X1116Y370D02*
X1116Y419D01*
D02*
X1116Y419D02*
X1066Y450D01*
D02*
X1177Y319D02*
X1116Y370D01*
D02*
X1126Y153D02*
X1048Y153D01*
D02*
X1175Y184D02*
X1126Y153D01*
D02*
X1048Y153D02*
X966Y235D01*
D02*
X963Y100D02*
X963Y135D01*
D02*
X1170Y100D02*
X963Y100D01*
D02*
X181Y1262D02*
X614Y1262D01*
D02*
X614Y1262D02*
X614Y1114D01*
D02*
X614Y1114D02*
X565Y1066D01*
D02*
X124Y1218D02*
X181Y1262D01*
D02*
X561Y1214D02*
X561Y1167D01*
D02*
X123Y1119D02*
X238Y1214D01*
D02*
X238Y1214D02*
X561Y1214D01*
D02*
X174Y1063D02*
X123Y1020D01*
D02*
X234Y1063D02*
X174Y1063D01*
D02*
X203Y900D02*
X203Y704D01*
D02*
X203Y704D02*
X560Y704D01*
D02*
X560Y704D02*
X560Y734D01*
D02*
X130Y900D02*
X203Y900D01*
D02*
X169Y800D02*
X169Y669D01*
D02*
X169Y669D02*
X604Y669D01*
D02*
X604Y788D02*
X565Y833D01*
D02*
X604Y669D02*
X604Y788D01*
D02*
X130Y800D02*
X169Y800D01*
D02*
X187Y632D02*
X572Y633D01*
D02*
X572Y633D02*
X637Y546D01*
D02*
X637Y546D02*
X565Y467D01*
D02*
X128Y610D02*
X187Y632D01*
D02*
X229Y596D02*
X124Y518D01*
D02*
X538Y597D02*
X229Y596D01*
D02*
X554Y567D02*
X538Y597D01*
D02*
X173Y462D02*
X123Y419D01*
D02*
X234Y462D02*
X173Y462D01*
D02*
X202Y300D02*
X130Y300D01*
D02*
X202Y97D02*
X202Y300D01*
D02*
X562Y134D02*
X562Y97D01*
D02*
X562Y97D02*
X202Y97D01*
D02*
X168Y60D02*
X168Y200D01*
D02*
X168Y200D02*
X130Y200D01*
D02*
X565Y235D02*
X608Y190D01*
D02*
X608Y60D02*
X168Y60D01*
D02*
X608Y190D02*
X608Y60D01*
D02*
X705Y684D02*
X666Y684D01*
D02*
X1066Y837D02*
X1087Y837D01*
D02*
X1066Y236D02*
X1085Y236D01*
D02*
X768Y642D02*
X697Y642D01*
D02*
X697Y642D02*
X666Y626D01*
G36*
X507Y438D02*
X537Y408D01*
X504Y374D01*
X473Y405D01*
X507Y438D01*
G37*
D02*
G36*
X554Y486D02*
X585Y455D01*
X551Y422D01*
X521Y452D01*
X554Y486D01*
G37*
D02*
G36*
X228Y419D02*
X272Y419D01*
X272Y372D01*
X228Y372D01*
X228Y419D01*
G37*
D02*
G36*
X228Y486D02*
X272Y486D01*
X272Y439D01*
X228Y439D01*
X228Y486D01*
G37*
D02*
G36*
X379Y452D02*
X348Y421D01*
X315Y454D01*
X346Y485D01*
X379Y452D01*
G37*
D02*
G36*
X426Y404D02*
X396Y374D01*
X362Y407D01*
X393Y438D01*
X426Y404D01*
G37*
D02*
G36*
X906Y438D02*
X937Y407D01*
X904Y374D01*
X873Y405D01*
X906Y438D01*
G37*
D02*
G36*
X954Y485D02*
X984Y455D01*
X951Y421D01*
X920Y452D01*
X954Y485D01*
G37*
D02*
G36*
X779Y452D02*
X748Y422D01*
X715Y455D01*
X745Y486D01*
X779Y452D01*
G37*
D02*
G36*
X826Y405D02*
X795Y374D01*
X762Y408D01*
X793Y438D01*
X826Y405D01*
G37*
D02*
G36*
X537Y294D02*
X506Y263D01*
X473Y297D01*
X503Y327D01*
X537Y294D01*
G37*
D02*
G36*
X584Y246D02*
X553Y216D01*
X520Y249D01*
X551Y280D01*
X584Y246D01*
G37*
D02*
G36*
X938Y294D02*
X907Y263D01*
X874Y296D01*
X904Y327D01*
X938Y294D01*
G37*
D02*
G36*
X985Y246D02*
X954Y216D01*
X921Y249D01*
X952Y280D01*
X985Y246D01*
G37*
D02*
G36*
X748Y280D02*
X779Y249D01*
X745Y216D01*
X715Y246D01*
X748Y280D01*
G37*
D02*
G36*
X795Y327D02*
X826Y297D01*
X793Y263D01*
X762Y294D01*
X795Y327D01*
G37*
D02*
G36*
X349Y281D02*
X379Y250D01*
X346Y217D01*
X315Y247D01*
X349Y281D01*
G37*
D02*
G36*
X396Y328D02*
X426Y298D01*
X393Y264D01*
X362Y295D01*
X396Y328D01*
G37*
D02*
G36*
X537Y893D02*
X507Y862D01*
X473Y896D01*
X504Y926D01*
X537Y893D01*
G37*
D02*
G36*
X585Y846D02*
X554Y815D01*
X521Y848D01*
X551Y879D01*
X585Y846D01*
G37*
D02*
G36*
X378Y1052D02*
X348Y1022D01*
X314Y1055D01*
X345Y1086D01*
X378Y1052D01*
G37*
D02*
G36*
X426Y1005D02*
X395Y974D01*
X362Y1008D01*
X392Y1038D01*
X426Y1005D01*
G37*
D02*
G36*
X228Y1019D02*
X272Y1019D01*
X272Y972D01*
X228Y972D01*
X228Y1019D01*
G37*
D02*
G36*
X228Y1086D02*
X272Y1086D01*
X272Y1039D01*
X228Y1039D01*
X228Y1086D01*
G37*
D02*
G36*
X748Y880D02*
X779Y849D01*
X745Y816D01*
X715Y846D01*
X748Y880D01*
G37*
D02*
G36*
X796Y927D02*
X826Y896D01*
X793Y863D01*
X762Y894D01*
X796Y927D01*
G37*
D02*
G36*
X938Y893D02*
X907Y862D01*
X874Y895D01*
X904Y926D01*
X938Y893D01*
G37*
D02*
G36*
X985Y845D02*
X954Y815D01*
X921Y848D01*
X952Y879D01*
X985Y845D01*
G37*
D02*
G36*
X348Y879D02*
X378Y849D01*
X345Y815D01*
X314Y846D01*
X348Y879D01*
G37*
D02*
G36*
X395Y927D02*
X426Y896D01*
X392Y862D01*
X362Y893D01*
X395Y927D01*
G37*
D02*
G36*
X506Y1038D02*
X537Y1007D01*
X503Y974D01*
X473Y1005D01*
X506Y1038D01*
G37*
D02*
G36*
X554Y1085D02*
X584Y1055D01*
X551Y1021D01*
X520Y1052D01*
X554Y1085D01*
G37*
D02*
G36*
X907Y1038D02*
X937Y1007D01*
X904Y974D01*
X873Y1004D01*
X907Y1038D01*
G37*
D02*
G36*
X954Y1085D02*
X984Y1054D01*
X951Y1021D01*
X920Y1052D01*
X954Y1085D01*
G37*
D02*
G36*
X779Y1052D02*
X748Y1021D01*
X715Y1055D01*
X745Y1085D01*
X779Y1052D01*
G37*
D02*
G36*
X826Y1005D02*
X795Y974D01*
X762Y1007D01*
X793Y1038D01*
X826Y1005D01*
G37*
D02*
G04 End of Copper1*
M02*