G04 MADE WITH FRITZING*
G04 WWW.FRITZING.ORG*
G04 DOUBLE SIDED*
G04 HOLES PLATED*
G04 CONTOUR ON CENTER OF CONTOUR VECTOR*
%ASAXBY*%
%FSLAX23Y23*%
%MOIN*%
%OFA0B0*%
%SFA1.0B1.0*%
%ADD10C,0.078000*%
%ADD11C,0.039370*%
%ADD12R,0.043307X0.047244*%
%ADD13C,0.016000*%
%LNCOPPER0*%
G90*
G70*
G54D10*
X100Y1200D03*
X100Y1100D03*
X100Y1000D03*
X100Y900D03*
X100Y800D03*
X100Y700D03*
X100Y600D03*
X100Y500D03*
X100Y400D03*
X100Y300D03*
X100Y200D03*
X100Y100D03*
X1200Y1200D03*
X1200Y1100D03*
X1200Y1000D03*
X1200Y900D03*
X1200Y800D03*
X1200Y700D03*
X1200Y600D03*
X1200Y500D03*
X1200Y400D03*
X1200Y300D03*
X1200Y200D03*
X1200Y100D03*
G54D11*
X531Y351D03*
X769Y351D03*
X369Y351D03*
X931Y351D03*
X931Y953D03*
X531Y951D03*
X769Y953D03*
X369Y951D03*
X249Y750D03*
X650Y752D03*
X249Y151D03*
X650Y150D03*
X724Y684D03*
X1106Y837D03*
X1104Y237D03*
X787Y642D03*
G54D12*
X650Y685D03*
X650Y618D03*
G54D13*
X512Y951D02*
X388Y951D01*
D02*
X912Y953D02*
X788Y953D01*
D02*
X512Y351D02*
X388Y351D01*
D02*
X912Y351D02*
X788Y351D01*
D02*
X705Y684D02*
X666Y685D01*
D02*
X201Y618D02*
X634Y618D01*
D02*
X123Y681D02*
X201Y618D01*
D02*
X631Y752D02*
X268Y750D01*
D02*
X669Y752D02*
X787Y752D01*
D02*
X787Y752D02*
X787Y661D01*
D02*
X130Y100D02*
X249Y100D01*
D02*
X249Y100D02*
X249Y132D01*
D02*
X650Y100D02*
X650Y131D01*
D02*
X130Y100D02*
X650Y100D01*
D02*
X1104Y100D02*
X1104Y218D01*
D02*
X130Y100D02*
X1104Y100D01*
D02*
X1104Y256D02*
X1106Y818D01*
D02*
X669Y752D02*
X1106Y752D01*
D02*
X1106Y752D02*
X1106Y818D01*
G04 End of Copper0*
M02*