; NON-PLATED HOLES START AT T1
; THROUGH (PLATED) HOLES START AT T100
M48
INCH
T100C0.038000
T101C0.015748
%
T100
X012000Y008000
X001000Y005000
X012000Y007000
X012000Y011000
X012000Y004000
X001000Y006000
X012000Y012000
X001000Y011000
X001000Y010000
X012000Y010000
X001000Y001000
X001000Y009000
X001000Y012000
X001000Y004000
X012000Y002000
X001000Y002000
X012000Y009000
X001000Y003000
X012000Y006000
X001000Y007000
X001000Y008000
X012000Y001000
X012000Y003000
X012000Y005000
T101
X003694Y009513
X003694Y003513
X009305Y009527
X002494Y001511
X007694Y003513
X011055Y008366
X005305Y009513
X006495Y001495
X002494Y007503
X005305Y003513
X007694Y009527
X007244Y006844
X011044Y002366
X007866Y006422
X006500Y007515
X009305Y003513
T00
M30
