G04 MADE WITH FRITZING*
G04 WWW.FRITZING.ORG*
G04 DOUBLE SIDED*
G04 HOLES PLATED*
G04 CONTOUR ON CENTER OF CONTOUR VECTOR*
%ASAXBY*%
%FSLAX23Y23*%
%MOIN*%
%OFA0B0*%
%SFA1.0B1.0*%
%ADD10C,0.039370*%
%ADD11C,0.066929*%
%ADD12C,0.062992*%
%ADD13C,0.075000*%
%ADD14C,0.066000*%
%ADD15C,0.078000*%
%ADD16R,0.066929X0.066929*%
%ADD17R,0.062992X0.062992*%
%ADD18C,0.012000*%
%ADD19C,0.024000*%
%LNCOPPER1*%
G90*
G70*
G54D10*
X5152Y1275D03*
X6237Y1273D03*
G54D11*
X7550Y1275D03*
X7650Y1275D03*
X7750Y1275D03*
X7850Y1275D03*
X7950Y1275D03*
X8050Y1275D03*
X8150Y1275D03*
X8250Y1275D03*
X7550Y1275D03*
X7650Y1275D03*
X7750Y1275D03*
X7850Y1275D03*
X7950Y1275D03*
X8050Y1275D03*
X8150Y1275D03*
X8250Y1275D03*
G54D10*
X6110Y1107D03*
X6160Y1157D03*
X3746Y1157D03*
X3846Y1106D03*
G54D11*
X8701Y1037D03*
X8801Y1037D03*
X8901Y1037D03*
X9001Y1037D03*
X9101Y1037D03*
X8701Y1037D03*
X8801Y1037D03*
X8901Y1037D03*
X9001Y1037D03*
X9101Y1037D03*
G54D10*
X4022Y1527D03*
X3250Y293D03*
G54D11*
X410Y1598D03*
X810Y1598D03*
X410Y1498D03*
X810Y1498D03*
X410Y1398D03*
X810Y1398D03*
X410Y1298D03*
X810Y1298D03*
X410Y1198D03*
X810Y1198D03*
X410Y1098D03*
X810Y1098D03*
X410Y998D03*
X810Y998D03*
X410Y898D03*
X810Y898D03*
X410Y798D03*
X810Y798D03*
X410Y698D03*
X810Y698D03*
X410Y598D03*
X810Y598D03*
X410Y498D03*
X810Y498D03*
X1385Y1598D03*
X1785Y1598D03*
X1385Y1498D03*
X1785Y1498D03*
X1385Y1398D03*
X1785Y1398D03*
X1385Y1298D03*
X1785Y1298D03*
X1385Y1198D03*
X1785Y1198D03*
X1385Y1098D03*
X1785Y1098D03*
X1385Y998D03*
X1785Y998D03*
X1385Y898D03*
X1785Y898D03*
X1385Y798D03*
X1785Y798D03*
X1385Y698D03*
X1785Y698D03*
X1385Y598D03*
X1785Y598D03*
X1385Y498D03*
X1785Y498D03*
G54D12*
X410Y222D03*
X410Y123D03*
G54D13*
X9340Y1782D03*
X9084Y1782D03*
X9340Y1959D03*
X9084Y1959D03*
G54D14*
X332Y1935D03*
X490Y1935D03*
X332Y1935D03*
X490Y1935D03*
X332Y1935D03*
X490Y1935D03*
G54D13*
X637Y1935D03*
X1037Y1935D03*
X637Y1935D03*
X1037Y1935D03*
G54D11*
X8451Y1274D03*
X8551Y1274D03*
X8651Y1274D03*
X8751Y1274D03*
X8851Y1274D03*
X8951Y1274D03*
X9051Y1274D03*
X9151Y1274D03*
X9251Y1274D03*
X8451Y1274D03*
X8551Y1274D03*
X8651Y1274D03*
X8751Y1274D03*
X8851Y1274D03*
X8951Y1274D03*
X9051Y1274D03*
X9151Y1274D03*
X9251Y1274D03*
G54D10*
X5910Y1007D03*
X6010Y1056D03*
X6502Y1006D03*
X6602Y1057D03*
X8602Y1056D03*
X8502Y1006D03*
X4602Y1056D03*
X4502Y1006D03*
X3346Y1056D03*
X3446Y1006D03*
X5760Y906D03*
X5710Y856D03*
X5810Y956D03*
X5661Y807D03*
X3546Y956D03*
X3646Y807D03*
X3946Y906D03*
X4046Y856D03*
G54D11*
X1250Y1598D03*
X1250Y1498D03*
X1250Y1398D03*
X1250Y1298D03*
X1250Y1198D03*
X1250Y1098D03*
X1250Y998D03*
X1250Y898D03*
X1250Y798D03*
X1250Y698D03*
X1250Y598D03*
X1250Y498D03*
X150Y1598D03*
X150Y1498D03*
X150Y1398D03*
X150Y1298D03*
X150Y1198D03*
X150Y1098D03*
X150Y998D03*
X150Y898D03*
X150Y798D03*
X150Y698D03*
X150Y598D03*
X150Y498D03*
G54D15*
X8202Y1528D03*
X8302Y1528D03*
X8402Y1528D03*
X8502Y1528D03*
X8602Y1528D03*
X6202Y1528D03*
X6302Y1528D03*
X6402Y1528D03*
X6502Y1528D03*
X6602Y1528D03*
X4202Y1527D03*
X4302Y1527D03*
X4402Y1527D03*
X4502Y1527D03*
X4602Y1527D03*
X2201Y1528D03*
X2301Y1528D03*
X2401Y1528D03*
X2501Y1528D03*
X2601Y1528D03*
G54D11*
X3045Y98D03*
X3045Y198D03*
X3045Y298D03*
X3045Y398D03*
X3045Y498D03*
X3045Y598D03*
X3045Y698D03*
X3045Y798D03*
X3045Y898D03*
X3045Y998D03*
X3045Y1098D03*
X3045Y1198D03*
X3045Y1298D03*
X3045Y1398D03*
X3045Y1498D03*
X3045Y1598D03*
X3045Y1698D03*
X3045Y1798D03*
X3045Y98D03*
X3045Y198D03*
X3045Y298D03*
X3045Y398D03*
X3045Y498D03*
X3045Y598D03*
X3045Y698D03*
X3045Y798D03*
X3045Y898D03*
X3045Y998D03*
X3045Y1098D03*
X3045Y1198D03*
X3045Y1298D03*
X3045Y1398D03*
X3045Y1498D03*
X3045Y1598D03*
X3045Y1698D03*
X3045Y1798D03*
X2945Y1798D03*
X2945Y1698D03*
X2945Y1598D03*
X2945Y1498D03*
X2945Y1398D03*
X2945Y1298D03*
X2945Y1198D03*
X2945Y1098D03*
X2945Y998D03*
X2945Y898D03*
X2945Y798D03*
X2945Y698D03*
X2945Y598D03*
X2945Y498D03*
X2945Y398D03*
X2945Y298D03*
X2945Y198D03*
X2945Y98D03*
G54D15*
X3848Y1996D03*
X3748Y1996D03*
X3648Y1996D03*
X3548Y1996D03*
X3448Y1996D03*
X3348Y1996D03*
X3248Y1996D03*
X3148Y1996D03*
X4747Y1996D03*
X4647Y1996D03*
X4547Y1996D03*
X4447Y1996D03*
X4347Y1996D03*
X4247Y1996D03*
X4147Y1996D03*
X4047Y1996D03*
X5645Y1996D03*
X5545Y1996D03*
X5445Y1996D03*
X5345Y1996D03*
X5245Y1996D03*
X5145Y1996D03*
X5045Y1996D03*
X4945Y1996D03*
X4046Y96D03*
X3946Y96D03*
X3846Y96D03*
X3746Y96D03*
X3646Y96D03*
X3546Y96D03*
X3446Y96D03*
X3346Y96D03*
X4949Y96D03*
X4849Y96D03*
X4749Y96D03*
X4649Y96D03*
X4549Y96D03*
X4449Y96D03*
X4349Y96D03*
X4249Y96D03*
X6010Y96D03*
X5910Y96D03*
X5810Y96D03*
X5710Y96D03*
X5610Y96D03*
X5510Y96D03*
X5410Y96D03*
X5310Y96D03*
X5210Y96D03*
X5110Y96D03*
G54D13*
X6540Y131D03*
X6284Y131D03*
X6540Y309D03*
X6284Y309D03*
X6940Y131D03*
X6684Y131D03*
X6940Y309D03*
X6684Y309D03*
X7339Y131D03*
X7083Y131D03*
X7339Y309D03*
X7083Y309D03*
X7740Y132D03*
X7484Y132D03*
X7740Y309D03*
X7484Y309D03*
X8139Y132D03*
X7883Y132D03*
X8139Y309D03*
X7883Y309D03*
X8540Y132D03*
X8284Y132D03*
X8540Y309D03*
X8284Y309D03*
X8939Y132D03*
X8683Y132D03*
X8939Y309D03*
X8683Y309D03*
X9339Y132D03*
X9083Y132D03*
X9339Y309D03*
X9083Y309D03*
G54D15*
X2401Y1734D03*
X2401Y1934D03*
X2401Y1734D03*
X2401Y1934D03*
G54D13*
X2056Y1933D03*
X1656Y1933D03*
X2056Y1933D03*
X1656Y1933D03*
G54D10*
X665Y1692D03*
G54D16*
X410Y1598D03*
X1385Y1598D03*
G54D17*
X410Y222D03*
G54D18*
X5510Y306D02*
X5510Y120D01*
D02*
X5152Y306D02*
X5510Y306D01*
D02*
X5152Y1262D02*
X5152Y306D01*
D02*
X7525Y1275D02*
X6250Y1273D01*
D02*
X3746Y1143D02*
X3746Y120D01*
D02*
X3846Y120D02*
X3846Y1093D01*
D02*
X7850Y1107D02*
X6124Y1107D01*
D02*
X7850Y1250D02*
X7850Y1107D01*
D02*
X7750Y1157D02*
X6173Y1157D01*
D02*
X7750Y1250D02*
X7750Y1157D01*
G54D19*
D02*
X8150Y1391D02*
X7650Y1391D01*
D02*
X7650Y1391D02*
X7650Y1306D01*
D02*
X8150Y1306D02*
X8150Y1391D01*
D02*
X8150Y1390D02*
X8150Y1306D01*
D02*
X8402Y1390D02*
X8150Y1390D01*
D02*
X8402Y1498D02*
X8402Y1390D01*
D02*
X4172Y1527D02*
X4041Y1527D01*
D02*
X9045Y1244D02*
X9007Y1067D01*
D02*
X3236Y280D02*
X3067Y120D01*
G54D18*
D02*
X4747Y1912D02*
X4747Y1971D01*
D02*
X4647Y1871D02*
X4647Y1971D01*
D02*
X4547Y1829D02*
X4547Y1971D01*
D02*
X4447Y1785D02*
X4447Y1971D01*
D02*
X4347Y1740D02*
X4347Y1971D01*
D02*
X4247Y1698D02*
X4247Y1971D01*
D02*
X4147Y1657D02*
X4147Y1971D01*
D02*
X4047Y1610D02*
X4047Y1971D01*
D02*
X5231Y1610D02*
X4047Y1610D01*
D02*
X5275Y1657D02*
X4147Y1657D01*
D02*
X5569Y696D02*
X5569Y1912D01*
D02*
X5528Y654D02*
X5528Y1871D01*
D02*
X5486Y607D02*
X5486Y1829D01*
D02*
X5444Y562D02*
X5444Y1785D01*
D02*
X5364Y1740D02*
X4347Y1740D01*
D02*
X5319Y1698D02*
X4247Y1698D01*
G54D19*
D02*
X5710Y309D02*
X5710Y126D01*
D02*
X6255Y309D02*
X5710Y309D01*
G54D18*
D02*
X6411Y393D02*
X5231Y393D01*
D02*
X5319Y476D02*
X5319Y1698D01*
D02*
X7212Y476D02*
X5319Y476D01*
D02*
X7212Y221D02*
X7212Y476D01*
D02*
X5364Y518D02*
X5364Y1740D01*
D02*
X7612Y518D02*
X5364Y518D01*
D02*
X7612Y221D02*
X7612Y518D01*
D02*
X5275Y435D02*
X5275Y1657D01*
D02*
X6811Y435D02*
X5275Y435D01*
D02*
X6811Y220D02*
X6811Y435D01*
D02*
X5231Y393D02*
X5231Y1610D01*
D02*
X6411Y222D02*
X6411Y393D01*
D02*
X5444Y1785D02*
X4447Y1785D01*
D02*
X8011Y562D02*
X5444Y562D01*
D02*
X8011Y222D02*
X8011Y562D01*
D02*
X5486Y1829D02*
X4547Y1829D01*
D02*
X8412Y607D02*
X5486Y607D01*
D02*
X8412Y221D02*
X8412Y607D01*
D02*
X5528Y1871D02*
X4647Y1871D01*
D02*
X8811Y654D02*
X5528Y654D01*
D02*
X8811Y221D02*
X8811Y654D01*
D02*
X5569Y1912D02*
X4747Y1912D01*
D02*
X9211Y220D02*
X9211Y696D01*
D02*
X9211Y696D02*
X5569Y696D01*
D02*
X6521Y145D02*
X6411Y222D01*
D02*
X6921Y144D02*
X6811Y220D01*
D02*
X7320Y145D02*
X7212Y221D01*
D02*
X7721Y145D02*
X7612Y221D01*
D02*
X8120Y145D02*
X8011Y222D01*
D02*
X8521Y145D02*
X8412Y221D01*
D02*
X8920Y145D02*
X8811Y221D01*
D02*
X9320Y145D02*
X9211Y220D01*
G54D19*
D02*
X8271Y1528D02*
X8232Y1528D01*
D02*
X6272Y1528D02*
X6232Y1528D01*
D02*
X4272Y1527D02*
X4232Y1527D01*
D02*
X2271Y1528D02*
X2231Y1528D01*
D02*
X609Y123D02*
X437Y123D01*
D02*
X609Y1798D02*
X609Y123D01*
D02*
X2976Y1798D02*
X3014Y1798D01*
D02*
X2914Y1798D02*
X609Y1798D01*
D02*
X181Y898D02*
X379Y898D01*
D02*
X379Y998D02*
X181Y998D01*
D02*
X181Y1098D02*
X379Y1098D01*
D02*
X379Y1198D02*
X181Y1198D01*
D02*
X181Y1298D02*
X379Y1298D01*
D02*
X379Y1398D02*
X181Y1398D01*
D02*
X181Y1498D02*
X379Y1498D01*
D02*
X379Y1598D02*
X181Y1598D01*
D02*
X1354Y998D02*
X1281Y998D01*
D02*
X1281Y1098D02*
X1354Y1098D01*
D02*
X1354Y1198D02*
X1281Y1198D01*
D02*
X1281Y1298D02*
X1354Y1298D01*
D02*
X1354Y1398D02*
X1281Y1398D01*
D02*
X1281Y1498D02*
X1354Y1498D01*
D02*
X1354Y1598D02*
X1281Y1598D01*
D02*
X379Y598D02*
X181Y598D01*
D02*
X181Y698D02*
X379Y698D01*
D02*
X379Y798D02*
X181Y798D01*
D02*
X410Y467D02*
X410Y249D01*
D02*
X1281Y498D02*
X1354Y498D01*
D02*
X1354Y598D02*
X1281Y598D01*
D02*
X1281Y698D02*
X1354Y698D01*
D02*
X1354Y798D02*
X1281Y798D01*
D02*
X1281Y898D02*
X1354Y898D01*
G54D18*
D02*
X2117Y1048D02*
X1805Y1283D01*
D02*
X2117Y948D02*
X1805Y1183D01*
D02*
X2117Y848D02*
X1805Y1083D01*
D02*
X2117Y748D02*
X1805Y983D01*
D02*
X2117Y648D02*
X1805Y883D01*
D02*
X2117Y548D02*
X1805Y783D01*
D02*
X2117Y448D02*
X1805Y683D01*
D02*
X2117Y348D02*
X1805Y583D01*
D02*
X2117Y249D02*
X1805Y483D01*
D02*
X2995Y248D02*
X2117Y249D01*
D02*
X2995Y348D02*
X2117Y348D01*
D02*
X2995Y448D02*
X2117Y448D01*
D02*
X2995Y548D02*
X2117Y548D01*
D02*
X2995Y648D02*
X2117Y648D01*
D02*
X2995Y748D02*
X2117Y748D01*
D02*
X2995Y848D02*
X2117Y848D01*
D02*
X2996Y948D02*
X2117Y948D01*
D02*
X2995Y1048D02*
X2117Y1048D01*
D02*
X3027Y1016D02*
X2995Y1048D01*
D02*
X3027Y916D02*
X2996Y948D01*
D02*
X3027Y816D02*
X2995Y848D01*
D02*
X3027Y716D02*
X2995Y748D01*
D02*
X3027Y616D02*
X2995Y648D01*
D02*
X3027Y516D02*
X2995Y548D01*
D02*
X3027Y416D02*
X2995Y448D01*
D02*
X3027Y316D02*
X2995Y348D01*
D02*
X3027Y216D02*
X2995Y248D01*
D02*
X2136Y798D02*
X1804Y1048D01*
D02*
X2130Y699D02*
X2920Y698D01*
D02*
X2136Y599D02*
X2920Y598D01*
D02*
X2133Y499D02*
X1802Y748D01*
D02*
X2134Y398D02*
X2920Y398D01*
D02*
X2130Y300D02*
X1802Y548D01*
D02*
X1804Y948D02*
X2130Y699D01*
D02*
X1804Y1048D02*
X862Y1048D01*
D02*
X1804Y848D02*
X2136Y599D01*
D02*
X1802Y748D02*
X862Y748D01*
D02*
X1805Y648D02*
X2134Y398D01*
D02*
X1802Y548D02*
X863Y548D01*
D02*
X863Y548D02*
X828Y581D01*
D02*
X863Y649D02*
X1805Y648D01*
D02*
X863Y748D02*
X828Y781D01*
D02*
X863Y848D02*
X1804Y848D01*
D02*
X863Y948D02*
X1804Y948D01*
D02*
X863Y1048D02*
X828Y1081D01*
D02*
X2920Y798D02*
X2136Y798D01*
D02*
X828Y981D02*
X863Y948D01*
D02*
X828Y881D02*
X863Y848D01*
D02*
X2920Y498D02*
X2133Y499D01*
D02*
X829Y681D02*
X863Y649D01*
D02*
X2920Y298D02*
X2130Y300D01*
G54D19*
D02*
X810Y198D02*
X2914Y198D01*
D02*
X810Y467D02*
X810Y198D01*
G54D18*
D02*
X2117Y1349D02*
X1805Y1583D01*
D02*
X2117Y1248D02*
X1805Y1483D01*
D02*
X2117Y1148D02*
X1805Y1383D01*
D02*
X2996Y1148D02*
X2117Y1148D01*
D02*
X2995Y1248D02*
X2117Y1248D01*
D02*
X2996Y1348D02*
X2117Y1349D01*
D02*
X3027Y1316D02*
X2996Y1348D01*
D02*
X3027Y1216D02*
X2995Y1248D01*
D02*
X3027Y1116D02*
X2996Y1148D01*
G54D19*
D02*
X9340Y1753D02*
X9339Y338D01*
D02*
X2976Y98D02*
X3014Y98D01*
G54D18*
D02*
X2135Y1299D02*
X2920Y1298D01*
D02*
X2137Y1200D02*
X1804Y1448D01*
D02*
X2135Y1098D02*
X2920Y1098D01*
D02*
X2135Y998D02*
X1804Y1248D01*
D02*
X2132Y899D02*
X2920Y898D01*
D02*
X1805Y1148D02*
X2132Y899D01*
D02*
X1804Y1248D02*
X862Y1248D01*
D02*
X1806Y1348D02*
X2135Y1098D01*
D02*
X1804Y1448D02*
X863Y1449D01*
D02*
X1804Y1548D02*
X2135Y1299D01*
D02*
X864Y1148D02*
X1805Y1148D01*
D02*
X863Y1248D02*
X828Y1281D01*
D02*
X863Y1348D02*
X1806Y1348D01*
D02*
X863Y1449D02*
X829Y1481D01*
D02*
X862Y1548D02*
X1804Y1548D01*
D02*
X828Y1581D02*
X862Y1548D01*
D02*
X2920Y1198D02*
X2137Y1200D01*
D02*
X828Y1381D02*
X863Y1348D01*
D02*
X2920Y998D02*
X2135Y998D01*
D02*
X829Y1181D02*
X864Y1148D01*
G54D19*
D02*
X9311Y1782D02*
X9112Y1782D01*
D02*
X8402Y1782D02*
X8402Y1558D01*
D02*
X6402Y1782D02*
X6402Y1558D01*
D02*
X9055Y1782D02*
X6402Y1782D01*
D02*
X9055Y1782D02*
X8402Y1782D01*
D02*
X1037Y1798D02*
X1037Y1906D01*
D02*
X2914Y1798D02*
X1037Y1798D01*
D02*
X608Y1935D02*
X517Y1935D01*
D02*
X3944Y1415D02*
X3944Y1798D01*
D02*
X3944Y1798D02*
X3076Y1798D01*
D02*
X4402Y1415D02*
X3944Y1415D01*
D02*
X4402Y1497D02*
X4402Y1415D01*
D02*
X2401Y1798D02*
X2401Y1558D01*
D02*
X2914Y1798D02*
X2401Y1798D01*
D02*
X2085Y1933D02*
X2371Y1934D01*
D02*
X2401Y1558D02*
X2401Y1704D01*
D02*
X2789Y1887D02*
X2789Y2028D01*
D02*
X2789Y2028D02*
X637Y2028D01*
D02*
X3848Y1887D02*
X2789Y1887D01*
D02*
X637Y2028D02*
X637Y1964D01*
D02*
X3848Y1966D02*
X3848Y1887D01*
G54D18*
D02*
X6515Y1006D02*
X8489Y1006D01*
D02*
X6616Y1057D02*
X8588Y1056D01*
D02*
X5923Y1007D02*
X6488Y1006D01*
D02*
X6589Y1057D02*
X6023Y1056D01*
D02*
X3346Y1548D02*
X2643Y1548D01*
G54D19*
D02*
X5115Y1996D02*
X5075Y1996D01*
G54D18*
D02*
X2643Y1548D02*
X2623Y1539D01*
D02*
X3346Y1070D02*
X3346Y1548D01*
D02*
X2501Y1648D02*
X2501Y1553D01*
D02*
X3446Y1648D02*
X2501Y1648D01*
D02*
X3446Y1020D02*
X3446Y1648D01*
D02*
X4046Y843D02*
X4046Y120D01*
D02*
X3946Y893D02*
X3946Y120D01*
D02*
X8951Y856D02*
X5723Y856D01*
D02*
X8851Y906D02*
X5773Y906D01*
D02*
X8851Y1249D02*
X8851Y906D01*
D02*
X8951Y1249D02*
X8951Y856D01*
G54D19*
D02*
X9051Y1389D02*
X8402Y1389D01*
D02*
X8402Y1389D02*
X8402Y1498D01*
D02*
X9051Y1305D02*
X9051Y1389D01*
G54D18*
D02*
X3446Y993D02*
X3446Y120D01*
D02*
X3346Y1043D02*
X3346Y120D01*
D02*
X3646Y794D02*
X3646Y120D01*
D02*
X9251Y807D02*
X5674Y807D01*
D02*
X9251Y1249D02*
X9251Y807D01*
D02*
X3546Y943D02*
X3546Y120D01*
D02*
X8751Y956D02*
X5823Y956D01*
D02*
X8751Y1249D02*
X8751Y956D01*
D02*
X4602Y1070D02*
X4602Y1503D01*
D02*
X4502Y1020D02*
X4502Y1503D01*
G54D19*
D02*
X6655Y309D02*
X6568Y309D01*
D02*
X7055Y309D02*
X6968Y309D01*
D02*
X7455Y309D02*
X7368Y309D01*
D02*
X7855Y309D02*
X7768Y309D01*
D02*
X8255Y309D02*
X8168Y309D01*
D02*
X8655Y309D02*
X8568Y309D01*
D02*
X9055Y309D02*
X8968Y309D01*
G54D18*
D02*
X1801Y1692D02*
X2127Y1448D01*
D02*
X2995Y1448D02*
X3027Y1416D01*
D02*
X679Y1692D02*
X1801Y1692D01*
D02*
X2127Y1448D02*
X2995Y1448D01*
G04 End of Copper1*
M02*