; NON-PLATED HOLES START AT T1
; THROUGH (PLATED) HOLES START AT T100
M48
INCH
T1C0.125984
T100C0.031497
T101C0.031496
T102C0.039370
T103C0.035000
T104C0.038000
T105C0.015748
%
T1
X061622Y000854
X029529Y019947
X000999Y019984
X089370Y019984
X001009Y001021
X062012Y019947
X032098Y000854
T100
X004097Y002216
X004097Y001232
T101
X004898Y019354
X003323Y019354
T102
X030450Y005984
X030450Y002984
X008100Y005981
X091509Y012743
X089011Y010373
X017850Y008983
X004100Y004981
X013850Y015983
X012504Y013982
X013850Y004983
X087011Y010373
X030450Y007984
X082500Y012749
X029450Y004984
X030450Y000984
X077500Y012749
X078500Y012749
X030450Y006984
X030450Y013984
X029450Y011984
X030450Y015984
X017850Y015983
X013850Y007983
X087509Y012743
X013850Y014983
X017850Y004983
X001503Y008982
X013850Y008983
X030450Y012984
X012504Y009982
X008100Y004981
X092509Y012743
X013850Y010983
X029450Y017984
X090509Y012743
X089509Y012743
X030450Y011984
X017850Y006983
X088011Y010373
X030450Y001984
X008100Y012981
X029450Y008984
X029450Y014984
X001503Y012982
X079500Y012749
X001503Y010982
X004100Y012981
X013850Y005983
X029450Y003984
X004100Y005981
X012504Y008982
X013850Y006983
X001503Y011982
X030450Y010984
X081500Y012749
X017850Y013983
X013850Y013983
X080500Y012749
X029450Y009984
X004100Y011981
X001503Y013982
X029450Y001984
X030450Y009984
X001503Y009982
X029450Y012984
X008100Y011981
X029450Y016984
X004100Y006981
X004100Y013981
X001503Y014982
X012504Y011982
X030450Y004984
X001503Y005982
X008100Y013981
X075500Y012749
X008100Y014981
X008100Y015981
X029450Y006984
X029450Y010984
X004100Y010981
X029450Y002984
X004100Y009981
X076500Y012749
X017850Y009983
X008100Y010981
X012504Y007982
X030450Y008984
X029450Y005984
X030450Y016984
X017850Y005983
X001503Y015982
X017850Y010983
X004100Y015981
X008100Y007981
X001503Y007982
X013850Y009983
X008100Y009981
X086509Y012743
X013850Y012983
X012504Y006982
X013850Y011983
X030450Y017984
X012504Y014982
X001503Y006982
X029450Y007984
X017850Y012983
X030450Y014984
X091011Y010373
X084509Y012743
X004100Y008981
X090011Y010373
X017850Y014983
X012504Y012982
X029450Y015984
X012504Y004982
X004100Y014981
X030450Y003984
X029450Y013984
X004100Y007981
X012504Y015982
X012504Y005982
X008100Y008981
X017850Y007983
X017850Y011983
X085509Y012743
X001503Y004982
X008100Y006981
X012504Y010982
X088509Y012743
X029450Y000984
T103
X085398Y001320
X090832Y003092
X090836Y017817
X062835Y001314
X074839Y003092
X069395Y001314
X086831Y003092
X078833Y003092
X093391Y001320
X006370Y019349
X074839Y001320
X093395Y017817
X089390Y003092
X089390Y001320
X065395Y001314
X082839Y003092
X082839Y001320
X086831Y001320
X020563Y019332
X070833Y001314
X062835Y003085
X077398Y001320
X065395Y003085
X093395Y019589
X081392Y003092
X093391Y003092
X073392Y003085
X016563Y019332
X077398Y003092
X081392Y001320
X066835Y003085
X010370Y019349
X069395Y003085
X066835Y001314
X090836Y019589
X090832Y001320
X078833Y001320
X085398Y003092
X073392Y001314
X070833Y003085
T104
X085015Y015276
X044468Y019956
X049490Y000956
X086015Y015276
X044490Y000956
X064016Y015278
X042019Y015273
X039463Y000956
X084015Y015276
X083015Y015276
X045019Y015273
X045490Y000956
X034463Y000956
X054450Y019956
X032482Y019956
X052450Y019956
X036463Y000956
X037463Y000956
X044019Y015273
X037482Y019956
X040463Y000956
X041468Y019956
X053101Y000956
X026012Y015281
X024009Y017337
X033463Y000956
X055450Y019956
X058101Y000956
X042468Y019956
X050450Y019956
X056101Y000956
X024012Y015281
X082015Y015276
X054101Y000956
X043490Y000956
X034482Y019956
X052101Y000956
X043019Y015273
X046490Y000956
X062016Y015278
X024009Y019337
X055101Y000956
X065016Y015278
X031482Y019956
X049450Y019956
X063016Y015278
X060101Y000956
X036482Y019956
X047468Y019956
X045468Y019956
X046019Y015273
X047490Y000956
X025012Y015281
X022012Y015281
X043468Y019956
X038463Y000956
X056450Y019956
X053450Y019956
X040468Y019956
X059101Y000956
X042490Y000956
X023012Y015281
X048490Y000956
X057101Y000956
X033482Y019956
X051101Y000956
X051450Y019956
X038482Y019956
X066016Y015278
X035482Y019956
X035463Y000956
X046468Y019956
T105
X038463Y011063
X062370Y012725
X040463Y008564
X037455Y011566
X033463Y010561
X057598Y009064
X032500Y002928
X045021Y010062
X085021Y010061
X086015Y010562
X040222Y015273
X036463Y008070
X066021Y010565
X060100Y010561
X061103Y011065
X051518Y012749
X061596Y011569
X039463Y009064
X058098Y009560
X057098Y008564
X006650Y016918
X034463Y010062
X056605Y008070
X046015Y010561
X065018Y010061
X035463Y009560
X059097Y010068
T00
M30
