; NON-PLATED HOLES START AT T1
; THROUGH (PLATED) HOLES START AT T100
M48
INCH
T1C0.125984
T100C0.035000
T101C0.031496
T102C0.038000
T103C0.015748
T104C0.039370
T105C0.031497
%
T1
X032098Y000854
X061622Y000854
X029529Y019947
X000999Y019984
X062012Y019947
X001009Y001021
X089370Y019984
T100
X065395Y003085
X006370Y019349
X066835Y003085
X089390Y001320
X082839Y001320
X093391Y003092
X010370Y019349
X093395Y019589
X066835Y001314
X082839Y003092
X090832Y001320
X065395Y001314
X073392Y003085
X074839Y003092
X077398Y001320
X074839Y001320
X093391Y001320
X020563Y019332
X089390Y003092
X085398Y001320
X093395Y017817
X070833Y001314
X069395Y003085
X069395Y001314
X062835Y003085
X085398Y003092
X078833Y001320
X062835Y001314
X090836Y017817
X081392Y001320
X070833Y003085
X086831Y001320
X016563Y019332
X090832Y003092
X077398Y003092
X090836Y019589
X078833Y003092
X081392Y003092
X073392Y001314
X086831Y003092
T101
X004898Y019354
X003323Y019354
T102
X036463Y000956
X043468Y019956
X045468Y019956
X024009Y017337
X046019Y015273
X050450Y019956
X026012Y015281
X058101Y000956
X055450Y019956
X040468Y019956
X054101Y000956
X038463Y000956
X033463Y000956
X046468Y019956
X052101Y000956
X038482Y019956
X022012Y015281
X059101Y000956
X084015Y015276
X051450Y019956
X064016Y015278
X054450Y019956
X042468Y019956
X032482Y019956
X034463Y000956
X049490Y000956
X045490Y000956
X045019Y015273
X065016Y015278
X052450Y019956
X037463Y000956
X053101Y000956
X037482Y019956
X063016Y015278
X048490Y000956
X056101Y000956
X036482Y019956
X047468Y019956
X035482Y019956
X024012Y015281
X025012Y015281
X044468Y019956
X023012Y015281
X051101Y000956
X040463Y000956
X047490Y000956
X039463Y000956
X083015Y015276
X042490Y000956
X053450Y019956
X044490Y000956
X086015Y015276
X035463Y000956
X056450Y019956
X033482Y019956
X046490Y000956
X057101Y000956
X082015Y015276
X043019Y015273
X024009Y019337
X043490Y000956
X034482Y019956
X066016Y015278
X085015Y015276
X044019Y015273
X062016Y015278
X060101Y000956
X031482Y019956
X041468Y019956
X049450Y019956
X042019Y015273
X055101Y000956
T103
X037455Y011566
X033463Y010561
X058098Y009560
X039463Y009064
X086015Y010562
X056605Y008070
X057098Y008564
X040222Y015273
X045021Y010062
X057598Y009064
X036463Y008070
X046015Y010561
X038463Y011063
X061103Y011065
X040463Y008564
X034463Y010062
X066021Y010565
X061596Y011569
X035463Y009560
X059097Y010068
X032500Y002928
X085021Y010061
X060100Y010561
X065018Y010061
T104
X084509Y012743
X030450Y002984
X017850Y011983
X008100Y014981
X004100Y011981
X017850Y005983
X008100Y007981
X001503Y014982
X029450Y010984
X029450Y005984
X004100Y007981
X001503Y015982
X012504Y005982
X012504Y008982
X076500Y012749
X013850Y009983
X030450Y012984
X030450Y017984
X012504Y015982
X008100Y008981
X030450Y011984
X008100Y015981
X088509Y012743
X081500Y012749
X004100Y009981
X001503Y006982
X004100Y010981
X029450Y015984
X082500Y012749
X017850Y015983
X004100Y012981
X030450Y013984
X029450Y004984
X090011Y010373
X029450Y009984
X029450Y002984
X029450Y016984
X004100Y015981
X008100Y009981
X008100Y004981
X030450Y001984
X030450Y006984
X029450Y017984
X004100Y004981
X008100Y010981
X012504Y013982
X091509Y012743
X001503Y005982
X029450Y000984
X089011Y010373
X013850Y008983
X013850Y014983
X029450Y007984
X017850Y012983
X030450Y014984
X089509Y012743
X029450Y003984
X012504Y009982
X092509Y012743
X077500Y012749
X001503Y011982
X080500Y012749
X029450Y008984
X087011Y010373
X030450Y005984
X012504Y014982
X012504Y007982
X029450Y006984
X012504Y004982
X030450Y016984
X012504Y006982
X017850Y013983
X008100Y011981
X078500Y012749
X086509Y012743
X030450Y010984
X013850Y015983
X017850Y007983
X008100Y012981
X017850Y014983
X030450Y009984
X001503Y012982
X001503Y004982
X012504Y010982
X004100Y008981
X013850Y013983
X075500Y012749
X004100Y014981
X029450Y011984
X087509Y012743
X013850Y010983
X029450Y013984
X017850Y010983
X030450Y003984
X029450Y012984
X017850Y009983
X030450Y015984
X001503Y008982
X088011Y010373
X079500Y012749
X029450Y001984
X001503Y009982
X030450Y007984
X017850Y006983
X008100Y013981
X017850Y004983
X030450Y008984
X001503Y013982
X030450Y000984
X013850Y011983
X029450Y014984
X013850Y004983
X017850Y008983
X085509Y012743
X013850Y005983
X001503Y007982
X008100Y006981
X091011Y010373
X001503Y010982
X012504Y012982
X013850Y007983
X004100Y006981
X004100Y005981
X012504Y011982
X090509Y012743
X004100Y013981
X013850Y006983
X013850Y012983
X008100Y005981
X030450Y004984
T105
X004097Y002216
X004097Y001232
T00
M30
