; NON-PLATED HOLES START AT T1
; THROUGH (PLATED) HOLES START AT T100
M48
INCH
T100C0.015748
T101C0.039370
%
T100
X008224Y005932
X004991Y006427
X007415Y001932
X002092Y002366
X008365Y004962
X008062Y003871
X008910Y006427
X004456Y005932
X001506Y002033
X005395Y002801
X002466Y001932
X003870Y004477
X007042Y002366
X003415Y004962
X008820Y004477
X003123Y003871
T101
X002947Y007183
X008949Y001169
X000947Y007183
X007949Y001169
X003947Y007183
X006947Y007183
X000949Y001169
X004949Y001169
X001947Y007183
X005947Y007183
X002949Y001169
X004947Y007183
X008947Y007183
X005949Y001169
X007947Y007183
X001949Y001169
X006949Y001169
X003949Y001169
T00
M30
