G04 MADE WITH FRITZING*
G04 WWW.FRITZING.ORG*
G04 DOUBLE SIDED*
G04 HOLES PLATED*
G04 CONTOUR ON CENTER OF CONTOUR VECTOR*
%ASAXBY*%
%FSLAX23Y23*%
%MOIN*%
%OFA0B0*%
%SFA1.0B1.0*%
%ADD10C,0.066929*%
%ADD11C,0.039370*%
%ADD12C,0.012000*%
%LNCOPPER0*%
G90*
G70*
G54D10*
X95Y117D03*
X195Y117D03*
X295Y117D03*
X395Y117D03*
X495Y117D03*
X595Y117D03*
X695Y117D03*
X795Y117D03*
X895Y117D03*
X895Y718D03*
X795Y718D03*
X695Y718D03*
X595Y718D03*
X495Y718D03*
X395Y718D03*
X295Y718D03*
X195Y718D03*
X95Y718D03*
G54D11*
X540Y280D03*
X151Y203D03*
X704Y237D03*
X209Y237D03*
X247Y193D03*
X742Y193D03*
X806Y387D03*
X312Y387D03*
X387Y448D03*
X882Y448D03*
X342Y496D03*
X837Y496D03*
X446Y593D03*
X822Y593D03*
X499Y643D03*
X891Y643D03*
G54D12*
X526Y280D02*
X151Y280D01*
D02*
X151Y280D02*
X151Y217D01*
D02*
X691Y237D02*
X223Y237D01*
D02*
X723Y193D02*
X266Y193D01*
D02*
X846Y57D02*
X846Y237D01*
D02*
X949Y57D02*
X846Y57D01*
D02*
X846Y237D02*
X718Y237D01*
D02*
X949Y718D02*
X949Y57D01*
D02*
X920Y718D02*
X949Y718D01*
D02*
X326Y387D02*
X793Y387D01*
D02*
X895Y387D02*
X895Y142D01*
D02*
X820Y387D02*
X895Y387D01*
D02*
X863Y448D02*
X406Y448D01*
D02*
X95Y448D02*
X95Y142D01*
D02*
X374Y448D02*
X95Y448D01*
D02*
X361Y496D02*
X818Y496D01*
D02*
X95Y496D02*
X328Y496D01*
D02*
X95Y693D02*
X95Y496D01*
D02*
X459Y593D02*
X809Y593D01*
D02*
X513Y643D02*
X878Y643D01*
D02*
X446Y607D02*
X446Y782D01*
D02*
X446Y782D02*
X595Y782D01*
D02*
X595Y782D02*
X595Y744D01*
G04 End of Copper0*
M02*