G04 MADE WITH FRITZING*
G04 WWW.FRITZING.ORG*
G04 DOUBLE SIDED*
G04 HOLES PLATED*
G04 CONTOUR ON CENTER OF CONTOUR VECTOR*
%ASAXBY*%
%FSLAX23Y23*%
%MOIN*%
%OFA0B0*%
%SFA1.0B1.0*%
%ADD10R,0.047244X0.043307*%
%LNPASTEMASK1*%
G90*
G70*
G54D10*
X876Y192D03*
X943Y192D03*
X707Y447D03*
X774Y447D03*
X381Y191D03*
X448Y191D03*
X212Y447D03*
X279Y447D03*
G36*
X809Y277D02*
X767Y267D01*
X755Y312D01*
X797Y323D01*
X809Y277D01*
G37*
D02*
G36*
X825Y212D02*
X783Y202D01*
X772Y248D01*
X814Y258D01*
X825Y212D01*
G37*
D02*
G36*
X785Y666D02*
X794Y624D01*
X748Y615D01*
X739Y657D01*
X785Y666D01*
G37*
D02*
G36*
X851Y680D02*
X860Y637D01*
X813Y628D01*
X805Y670D01*
X851Y680D01*
G37*
D02*
G36*
X835Y354D02*
X877Y343D01*
X866Y298D01*
X824Y308D01*
X835Y354D01*
G37*
D02*
G36*
X852Y419D02*
X894Y408D01*
X882Y363D01*
X840Y373D01*
X852Y419D01*
G37*
D02*
G36*
X669Y621D02*
X660Y578D01*
X614Y588D01*
X622Y630D01*
X669Y621D01*
G37*
D02*
G36*
X734Y608D02*
X726Y565D01*
X679Y575D01*
X688Y617D01*
X734Y608D01*
G37*
D02*
G36*
X740Y344D02*
X698Y355D01*
X709Y401D01*
X751Y390D01*
X740Y344D01*
G37*
D02*
G36*
X723Y279D02*
X681Y290D01*
X693Y336D01*
X735Y325D01*
X723Y279D01*
G37*
D02*
G36*
X730Y548D02*
X738Y506D01*
X692Y496D01*
X683Y539D01*
X730Y548D01*
G37*
D02*
G36*
X795Y562D02*
X804Y519D01*
X758Y510D01*
X749Y552D01*
X795Y562D01*
G37*
D02*
G36*
X245Y344D02*
X203Y355D01*
X214Y400D01*
X256Y390D01*
X245Y344D01*
G37*
D02*
G36*
X228Y279D02*
X186Y290D01*
X198Y335D01*
X240Y325D01*
X228Y279D01*
G37*
D02*
G36*
X314Y277D02*
X272Y266D01*
X260Y312D01*
X302Y323D01*
X314Y277D01*
G37*
D02*
G36*
X330Y212D02*
X288Y201D01*
X277Y247D01*
X319Y258D01*
X330Y212D01*
G37*
D02*
G36*
X340Y354D02*
X382Y343D01*
X371Y297D01*
X329Y308D01*
X340Y354D01*
G37*
D02*
G36*
X357Y419D02*
X399Y408D01*
X387Y362D01*
X345Y373D01*
X357Y419D01*
G37*
D02*
G36*
X290Y666D02*
X299Y624D01*
X253Y614D01*
X244Y657D01*
X290Y666D01*
G37*
D02*
G36*
X356Y679D02*
X364Y637D01*
X318Y627D01*
X310Y670D01*
X356Y679D01*
G37*
D02*
G36*
X235Y548D02*
X243Y505D01*
X197Y496D01*
X188Y538D01*
X235Y548D01*
G37*
D02*
G36*
X300Y561D02*
X309Y519D01*
X263Y509D01*
X254Y552D01*
X300Y561D01*
G37*
D02*
G36*
X174Y620D02*
X165Y578D01*
X119Y587D01*
X127Y630D01*
X174Y620D01*
G37*
D02*
G36*
X239Y607D02*
X231Y565D01*
X184Y574D01*
X193Y617D01*
X239Y607D01*
G37*
D02*
G36*
X657Y328D02*
X615Y318D01*
X603Y364D01*
X645Y374D01*
X657Y328D01*
G37*
D02*
G36*
X673Y263D02*
X631Y253D01*
X620Y299D01*
X662Y309D01*
X673Y263D01*
G37*
D02*
G36*
X162Y328D02*
X120Y317D01*
X108Y363D01*
X150Y374D01*
X162Y328D01*
G37*
D02*
G36*
X178Y263D02*
X136Y252D01*
X124Y298D01*
X166Y309D01*
X178Y263D01*
G37*
D02*
G04 End of PasteMask1*
M02*