G04 MADE WITH FRITZING*
G04 WWW.FRITZING.ORG*
G04 DOUBLE SIDED*
G04 HOLES PLATED*
G04 CONTOUR ON CENTER OF CONTOUR VECTOR*
%ASAXBY*%
%FSLAX23Y23*%
%MOIN*%
%OFA0B0*%
%SFA1.0B1.0*%
%ADD10C,0.039370*%
%ADD11C,0.066929*%
%ADD12R,0.047244X0.043307*%
%ADD13C,0.012000*%
%LNCOPPER1*%
G90*
G70*
G54D10*
X540Y280D03*
X151Y203D03*
X704Y237D03*
X209Y237D03*
X247Y193D03*
X742Y193D03*
X806Y387D03*
X312Y387D03*
G54D11*
X95Y117D03*
X195Y117D03*
X295Y117D03*
X395Y117D03*
X495Y117D03*
X595Y117D03*
X695Y117D03*
X795Y117D03*
X895Y117D03*
X895Y718D03*
X795Y718D03*
X695Y718D03*
X595Y718D03*
X495Y718D03*
X395Y718D03*
X295Y718D03*
X195Y718D03*
X95Y718D03*
G54D10*
X387Y448D03*
X882Y448D03*
X342Y496D03*
X837Y496D03*
X446Y593D03*
X822Y593D03*
X499Y643D03*
X891Y643D03*
G54D12*
X876Y192D03*
X943Y192D03*
X707Y447D03*
X774Y447D03*
X381Y191D03*
X448Y191D03*
X212Y447D03*
X279Y447D03*
G54D13*
X277Y658D02*
X286Y690D01*
D02*
X253Y640D02*
X146Y640D01*
D02*
X146Y640D02*
X146Y620D01*
D02*
X146Y522D02*
X197Y522D01*
D02*
X146Y587D02*
X146Y522D01*
D02*
X215Y505D02*
X213Y463D01*
D02*
X216Y431D02*
X225Y392D01*
D02*
X200Y431D02*
X147Y362D01*
D02*
X242Y355D02*
X275Y310D01*
D02*
X245Y367D02*
X340Y331D01*
D02*
X359Y306D02*
X378Y207D01*
D02*
X641Y641D02*
X641Y621D01*
D02*
X748Y641D02*
X641Y641D01*
D02*
X641Y588D02*
X641Y522D01*
D02*
X641Y522D02*
X692Y522D01*
D02*
X710Y506D02*
X708Y463D01*
D02*
X695Y431D02*
X643Y362D01*
D02*
X711Y431D02*
X720Y392D01*
D02*
X737Y356D02*
X770Y311D01*
D02*
X740Y367D02*
X835Y331D01*
D02*
X854Y306D02*
X873Y208D01*
D02*
X553Y280D02*
X630Y281D01*
D02*
X151Y217D02*
X151Y262D01*
D02*
X705Y250D02*
X707Y289D01*
D02*
X212Y289D02*
X210Y250D01*
D02*
X289Y220D02*
X258Y200D01*
D02*
X784Y221D02*
X753Y201D01*
D02*
X773Y658D02*
X784Y690D01*
D02*
X540Y294D02*
X539Y598D01*
D02*
X539Y598D02*
X675Y703D01*
D02*
X732Y177D02*
X711Y143D01*
D02*
X306Y399D02*
X288Y431D01*
D02*
X800Y399D02*
X783Y431D01*
D02*
X877Y429D02*
X872Y408D01*
D02*
X382Y429D02*
X377Y408D01*
D02*
X326Y507D02*
X301Y523D01*
D02*
X821Y507D02*
X796Y523D01*
D02*
X432Y593D02*
X230Y591D01*
D02*
X809Y593D02*
X725Y592D01*
D02*
X356Y652D02*
X486Y644D01*
D02*
X851Y650D02*
X872Y646D01*
D02*
X500Y241D02*
X580Y137D01*
D02*
X499Y629D02*
X500Y241D01*
D02*
X795Y54D02*
X446Y54D01*
D02*
X446Y54D02*
X446Y146D01*
D02*
X446Y146D02*
X447Y175D01*
D02*
X795Y92D02*
X795Y54D01*
D02*
X795Y54D02*
X948Y54D01*
D02*
X948Y145D02*
X944Y176D01*
D02*
X948Y54D02*
X948Y145D01*
D02*
X795Y92D02*
X795Y54D01*
D02*
X337Y317D02*
X302Y301D01*
D02*
X832Y317D02*
X797Y302D01*
D02*
X212Y367D02*
X150Y350D01*
D02*
X707Y368D02*
X646Y350D01*
G36*
X809Y277D02*
X767Y267D01*
X755Y312D01*
X797Y323D01*
X809Y277D01*
G37*
D02*
G36*
X825Y212D02*
X783Y202D01*
X772Y248D01*
X814Y258D01*
X825Y212D01*
G37*
D02*
G36*
X669Y621D02*
X660Y578D01*
X614Y588D01*
X622Y630D01*
X669Y621D01*
G37*
D02*
G36*
X734Y608D02*
X726Y565D01*
X679Y575D01*
X688Y617D01*
X734Y608D01*
G37*
D02*
G36*
X730Y548D02*
X738Y506D01*
X692Y496D01*
X683Y539D01*
X730Y548D01*
G37*
D02*
G36*
X795Y562D02*
X804Y519D01*
X758Y510D01*
X749Y552D01*
X795Y562D01*
G37*
D02*
G36*
X740Y344D02*
X698Y355D01*
X709Y401D01*
X751Y390D01*
X740Y344D01*
G37*
D02*
G36*
X723Y279D02*
X681Y290D01*
X693Y336D01*
X735Y325D01*
X723Y279D01*
G37*
D02*
G36*
X657Y328D02*
X615Y318D01*
X603Y364D01*
X645Y374D01*
X657Y328D01*
G37*
D02*
G36*
X673Y263D02*
X631Y253D01*
X620Y299D01*
X662Y309D01*
X673Y263D01*
G37*
D02*
G36*
X835Y354D02*
X877Y343D01*
X866Y298D01*
X824Y308D01*
X835Y354D01*
G37*
D02*
G36*
X852Y419D02*
X894Y408D01*
X882Y363D01*
X840Y373D01*
X852Y419D01*
G37*
D02*
G36*
X785Y666D02*
X794Y624D01*
X748Y615D01*
X739Y657D01*
X785Y666D01*
G37*
D02*
G36*
X851Y680D02*
X860Y637D01*
X813Y628D01*
X805Y670D01*
X851Y680D01*
G37*
D02*
G36*
X340Y354D02*
X382Y343D01*
X371Y297D01*
X329Y308D01*
X340Y354D01*
G37*
D02*
G36*
X357Y419D02*
X399Y408D01*
X387Y362D01*
X345Y373D01*
X357Y419D01*
G37*
D02*
G36*
X162Y328D02*
X120Y317D01*
X108Y363D01*
X150Y374D01*
X162Y328D01*
G37*
D02*
G36*
X178Y263D02*
X136Y252D01*
X124Y298D01*
X166Y309D01*
X178Y263D01*
G37*
D02*
G36*
X245Y344D02*
X203Y355D01*
X214Y400D01*
X256Y390D01*
X245Y344D01*
G37*
D02*
G36*
X228Y279D02*
X186Y290D01*
X198Y335D01*
X240Y325D01*
X228Y279D01*
G37*
D02*
G36*
X314Y277D02*
X272Y266D01*
X260Y312D01*
X302Y323D01*
X314Y277D01*
G37*
D02*
G36*
X330Y212D02*
X288Y201D01*
X277Y247D01*
X319Y258D01*
X330Y212D01*
G37*
D02*
G36*
X290Y666D02*
X299Y624D01*
X253Y614D01*
X244Y657D01*
X290Y666D01*
G37*
D02*
G36*
X356Y679D02*
X364Y637D01*
X318Y627D01*
X310Y670D01*
X356Y679D01*
G37*
D02*
G36*
X174Y620D02*
X165Y578D01*
X119Y587D01*
X127Y630D01*
X174Y620D01*
G37*
D02*
G36*
X239Y607D02*
X231Y565D01*
X184Y574D01*
X193Y617D01*
X239Y607D01*
G37*
D02*
G36*
X235Y548D02*
X243Y505D01*
X197Y496D01*
X188Y538D01*
X235Y548D01*
G37*
D02*
G36*
X300Y561D02*
X309Y519D01*
X263Y509D01*
X254Y552D01*
X300Y561D01*
G37*
D02*
G04 End of Copper1*
M02*